<svg version="1.1" id="Layer_1" xmlns="http://www.w3.org/2000/svg" xmlns:xlink="http://www.w3.org/1999/xlink" x="0px" y="0px"
	 width="100%" viewBox="0 0 2000 2000" enable-background="new 0 0 2000 2000" xml:space="preserve">
<path fill="#FFFFFF" opacity="1.000000" stroke="none" 
	d="
M1314.000000,2001.000000 
	C876.000000,2001.000000 438.500000,2001.000000 1.000000,2001.000000 
	C1.000000,1334.333374 1.000000,667.666687 1.000000,1.000000 
	C667.666687,1.000000 1334.333374,1.000000 2001.000000,1.000000 
	C2001.000000,667.666687 2001.000000,1334.333374 2001.000000,2001.000000 
	C1772.166626,2001.000000 1543.333374,2001.000000 1314.000000,2001.000000 
M539.900208,1210.175049 
	C551.695862,1210.187134 563.496277,1210.394043 575.284851,1210.111328 
	C579.740967,1210.004639 580.910339,1211.429688 580.871521,1215.776123 
	C580.684937,1236.705933 580.823914,1257.638428 580.628113,1279.541016 
	C580.615723,1412.206543 580.618408,1544.872070 580.506348,1677.537476 
	C580.503479,1680.938110 581.898132,1682.519287 584.546021,1684.125122 
	C626.585632,1709.621338 670.588501,1731.072510 716.534973,1748.563965 
	C792.971558,1777.662842 872.006165,1794.919434 953.632874,1799.722656 
	C1011.354187,1803.119263 1068.839355,1800.362793 1126.012451,1791.203613 
	C1195.690430,1780.040894 1262.754883,1760.129028 1327.133545,1731.380493 
	C1437.916626,1681.909790 1532.596680,1610.825562 1611.124023,1518.306519 
	C1670.354370,1448.522705 1716.033203,1370.713379 1748.810425,1285.291626 
	C1749.662354,1283.071167 1750.330322,1280.780151 1751.268799,1277.968262 
	C1671.690186,1277.968262 1592.927612,1277.968262 1514.068359,1277.968262 
	C1514.068359,1232.522339 1514.068359,1187.444458 1514.068359,1141.808105 
	C1605.685059,1141.808105 1697.069336,1141.808105 1788.349243,1141.808105 
	C1854.821411,775.920349 1655.933594,389.126099 1274.671631,249.470154 
	C909.294312,115.632805 497.571045,264.649719 304.598022,607.755188 
	C113.522148,947.487488 207.610260,1325.990967 411.605499,1541.084717 
	C411.605499,1430.665649 411.605499,1320.789185 411.605499,1210.387451 
	C413.912445,1210.387451 415.706665,1210.387329 417.500885,1210.387329 
	C456.000275,1210.387329 494.499634,1210.392456 532.999023,1210.373291 
	C534.986633,1210.372314 536.974121,1210.165283 539.900208,1210.175049 
z"/>
<path fill="#272727" opacity="1.000000" stroke="none" 
	d="
M538.961670,1210.054199 
	C536.974121,1210.165283 534.986633,1210.372314 532.999023,1210.373291 
	C494.499634,1210.392456 456.000275,1210.387329 417.500885,1210.387329 
	C415.706665,1210.387329 413.912445,1210.387451 411.605499,1210.387451 
	C411.605499,1320.789185 411.605499,1430.665649 411.605499,1541.084717 
	C207.610260,1325.990967 113.522148,947.487488 304.598022,607.755188 
	C497.571045,264.649719 909.294312,115.632805 1274.671631,249.470154 
	C1655.933594,389.126099 1854.821411,775.920349 1788.349243,1141.808105 
	C1697.069336,1141.808105 1605.685059,1141.808105 1514.068359,1141.808105 
	C1514.068359,1187.444458 1514.068359,1232.522339 1514.068359,1277.968262 
	C1592.927612,1277.968262 1671.690186,1277.968262 1751.268799,1277.968262 
	C1750.330322,1280.780151 1749.662354,1283.071167 1748.810425,1285.291626 
	C1716.033203,1370.713379 1670.354370,1448.522705 1611.124023,1518.306519 
	C1532.596680,1610.825562 1437.916626,1681.909790 1327.133545,1731.380493 
	C1262.754883,1760.129028 1195.690430,1780.040894 1126.012451,1791.203613 
	C1068.839355,1800.362793 1011.354187,1803.119263 953.632874,1799.722656 
	C872.006165,1794.919434 792.971558,1777.662842 716.534973,1748.563965 
	C670.588501,1731.072510 626.585632,1709.621338 584.546021,1684.125122 
	C581.898132,1682.519287 580.503479,1680.938110 580.506348,1677.537476 
	C580.618408,1544.872070 580.615723,1412.206543 581.215576,1279.052246 
	C628.751709,1278.563477 675.700439,1278.563477 723.197449,1278.563477 
	C723.197449,1209.601440 723.197449,1141.213135 723.197449,1072.441895 
	C803.358521,1072.441895 882.969727,1072.441895 963.064026,1072.441895 
	C963.064026,1070.268677 963.064026,1068.478271 963.064026,1066.687744 
	C963.064026,1033.858398 962.948975,1001.028320 963.148560,968.200073 
	C963.195801,960.425476 962.150024,953.122742 959.357300,945.816650 
	C957.827881,941.815430 955.983032,940.746765 951.918213,940.753357 
	C877.594055,940.873291 803.269592,940.841003 728.945251,940.841003 
	C727.032043,940.841003 725.118835,940.840942 723.378540,940.840942 
	C723.378540,907.638489 723.378540,875.231018 723.378540,842.289795 
	C789.796814,842.289795 855.841370,842.289795 922.299377,842.289795 
	C921.772034,840.605164 921.468994,839.514648 921.092102,838.450256 
	C905.886658,795.510559 890.625122,752.590393 875.553467,709.603821 
	C874.300964,706.031616 872.757996,704.896790 868.930481,704.901123 
	C760.776978,705.023376 652.623291,704.999512 544.469666,704.999512 
	C542.707458,704.999512 540.945251,704.999512 538.932861,704.999512 
	C538.932861,706.651794 538.932800,707.633362 538.932861,708.614929 
	C538.942444,875.761353 538.952087,1042.907715 538.961670,1210.054199 
M1078.054565,1103.436279 
	C1098.101074,1160.019287 1118.145508,1216.602905 1138.199951,1273.183105 
	C1139.230225,1276.089478 1139.688232,1278.745850 1144.309692,1278.731689 
	C1212.638672,1278.522461 1280.968628,1278.566650 1349.298218,1278.654053 
	C1352.467163,1278.658203 1353.973389,1277.710815 1355.013672,1274.661133 
	C1360.274658,1259.239624 1365.760254,1243.894653 1371.186646,1228.529785 
	C1426.728394,1071.266235 1482.276611,914.004883 1537.814087,756.739807 
	C1543.840576,739.674805 1549.809937,722.589600 1555.986206,705.000000 
	C1553.715942,705.000000 1551.926392,705.000000 1550.136719,705.000000 
	C1491.306519,705.000000 1432.476196,705.052979 1373.646362,704.895508 
	C1369.132324,704.883484 1367.199951,705.924194 1365.805664,710.560242 
	C1328.403809,834.923828 1290.800537,959.226868 1253.161743,1083.519165 
	C1252.656860,1085.186401 1251.258057,1086.583008 1250.276611,1088.106079 
	C1249.235596,1086.635620 1247.714233,1085.309692 1247.221924,1083.674072 
	C1209.748169,959.159119 1172.337769,834.625061 1135.041992,710.056702 
	C1133.916260,706.297119 1132.597534,704.865967 1128.362549,704.878174 
	C1066.366333,705.055481 1004.369446,705.000000 942.372742,705.000000 
	C940.730530,705.000000 939.088379,705.000000 937.089539,705.000000 
	C937.637329,706.792419 938.014587,708.217773 938.504883,709.603149 
	C946.328125,731.705750 954.165710,753.803345 962.000427,775.901917 
	C1000.618286,884.826965 1039.236328,993.751892 1078.054565,1103.436279 
M633.499756,639.508179 
	C646.272461,639.508179 659.045227,639.508179 671.705078,639.508179 
	C671.705078,633.814758 671.705078,628.755981 671.705078,623.759338 
	C584.756165,623.759338 498.178894,623.759338 411.459991,623.759338 
	C411.459991,629.039124 411.459991,633.975647 411.459991,639.507996 
	C485.277893,639.507996 558.888794,639.507996 633.499756,639.508179 
M1262.763184,1382.500000 
	C1262.763184,1369.891113 1262.763184,1357.282227 1262.763184,1344.424316 
	C1256.987183,1344.424316 1251.750366,1344.424316 1246.019653,1344.424316 
	C1246.019653,1353.986938 1246.019653,1363.384888 1246.019653,1372.794678 
	C1237.983887,1372.794678 1230.444580,1372.794678 1222.543213,1372.794678 
	C1222.543213,1363.168213 1222.543213,1353.899414 1222.543213,1344.406494 
	C1216.933594,1344.406494 1211.697144,1344.406494 1206.284668,1344.406494 
	C1206.284668,1368.679077 1206.284668,1392.712280 1206.284668,1416.751465 
	C1211.824341,1416.751465 1217.073608,1416.751465 1222.788452,1416.751465 
	C1222.788452,1407.104736 1222.788452,1397.705078 1222.788452,1388.293213 
	C1230.796875,1388.293213 1238.329102,1388.293213 1246.266479,1388.293213 
	C1246.266479,1398.060425 1246.266479,1407.467651 1246.266479,1416.697021 
	C1251.937622,1416.697021 1257.187744,1416.697021 1262.763062,1416.697021 
	C1262.763062,1405.424072 1262.763062,1394.462036 1262.763184,1382.500000 
M977.341736,1414.416626 
	C977.341736,1405.659668 977.341736,1396.902832 977.341736,1388.177368 
	C985.498535,1388.177368 992.934692,1388.177368 1000.828613,1388.177368 
	C1000.828613,1397.827148 1000.828613,1407.231567 1000.828613,1416.752441 
	C1006.545227,1416.752441 1011.795654,1416.752441 1017.133667,1416.752441 
	C1017.133667,1392.573242 1017.133667,1368.644775 1017.133667,1344.455811 
	C1011.672363,1344.455811 1006.441956,1344.455811 1000.666992,1344.455811 
	C1000.666992,1354.124878 1000.666992,1363.530762 1000.666992,1372.906250 
	C992.680298,1372.906250 985.241333,1372.906250 977.205933,1372.906250 
	C977.205933,1363.271851 977.205933,1353.886963 977.205933,1344.412598 
	C971.508423,1344.412598 966.414856,1344.412598 961.116943,1344.412598 
	C961.116943,1368.676147 961.116943,1392.705322 961.116943,1416.999878 
	C965.902954,1416.999878 970.381836,1417.081055 974.852661,1416.927612 
	C975.692749,1416.899048 976.500671,1415.934326 977.341736,1414.416626 
M793.941589,1400.387695 
	C791.797852,1405.743286 789.654114,1411.098755 787.288635,1417.008301 
	C789.446350,1417.008301 790.902771,1417.029419 792.358337,1417.004395 
	C796.504822,1416.932983 801.533142,1418.241333 804.536377,1416.346802 
	C807.258728,1414.629272 807.505859,1409.267212 809.389221,1405.808716 
	C810.188293,1404.341431 812.338867,1402.799072 813.943970,1402.721924 
	C820.922791,1402.386597 827.934387,1402.408813 834.915833,1402.715820 
	C836.377991,1402.780029 838.379456,1404.291016 839.064148,1405.666992 
	C840.874695,1409.305420 842.099487,1413.235107 843.450500,1416.769287 
	C849.595276,1416.769287 855.177612,1416.769287 861.174988,1416.769287 
	C860.513916,1415.060669 860.003357,1413.692017 859.457336,1412.337402 
	C851.632690,1392.926270 843.797363,1373.519531 835.977356,1354.106445 
	C831.964783,1344.145142 831.971313,1344.335693 821.400696,1344.068115 
	C817.547852,1343.970703 816.022156,1345.346191 814.664795,1348.821411 
	C808.018433,1365.838135 801.032104,1382.722168 793.941589,1400.387695 
M1069.929565,1373.342773 
	C1067.654907,1379.175049 1065.380127,1385.007324 1062.778442,1391.678101 
	C1062.193481,1390.210205 1061.972168,1389.672241 1061.763794,1389.129517 
	C1056.469727,1375.335571 1051.228149,1361.521118 1045.807251,1347.777222 
	C1045.248657,1346.361328 1043.687378,1344.423706 1042.478882,1344.339478 
	C1037.109131,1343.964600 1031.698486,1344.176880 1025.667603,1344.176880 
	C1036.032349,1368.895264 1046.095215,1392.893677 1056.207031,1417.008667 
	C1059.206787,1417.008667 1062.068848,1416.715088 1064.843994,1417.081177 
	C1068.533325,1417.567749 1069.944336,1415.833984 1071.242065,1412.672363 
	C1078.681396,1394.549072 1086.356323,1376.522461 1093.936523,1358.457031 
	C1095.849243,1353.898315 1097.708252,1349.317017 1099.745850,1344.372559 
	C1093.232178,1344.372559 1087.303955,1344.372559 1081.076782,1344.372559 
	C1077.449097,1353.731934 1073.793335,1363.164185 1069.929565,1373.342773 
M1169.425171,1372.153198 
	C1167.528687,1371.120117 1165.322876,1370.407104 1163.826050,1368.960449 
	C1162.433838,1367.614868 1160.798096,1365.301636 1161.086426,1363.752441 
	C1161.429443,1361.909180 1163.422729,1359.647339 1165.223755,1358.982422 
	C1167.548340,1358.123779 1170.502563,1358.167480 1172.983765,1358.723633 
	C1176.754883,1359.569092 1180.352539,1361.188843 1184.254028,1362.560669 
	C1186.347290,1358.387451 1188.411255,1354.272583 1190.670166,1349.768799 
	C1183.212891,1344.894897 1175.382446,1342.779541 1166.872437,1343.014771 
	C1156.666016,1343.296997 1147.193237,1350.553101 1145.002075,1359.688232 
	C1142.667358,1369.421631 1146.681885,1377.555176 1156.749023,1383.087280 
	C1160.822754,1385.325684 1165.117310,1387.160278 1169.210938,1389.365234 
	C1172.389893,1391.077515 1175.238037,1393.205444 1174.211670,1397.552734 
	C1173.195312,1401.858398 1169.591919,1402.685791 1166.102173,1402.767822 
	C1163.206055,1402.835938 1160.108643,1402.259644 1157.416626,1401.179932 
	C1153.594482,1399.646851 1150.062500,1397.390259 1146.011719,1395.232422 
	C1143.507202,1399.434692 1140.819214,1403.944824 1138.164307,1408.399536 
	C1148.965454,1419.063477 1171.098999,1421.581909 1183.475952,1413.727417 
	C1194.526855,1406.714233 1196.286011,1390.463379 1186.303345,1382.043335 
	C1181.578613,1378.058105 1175.531860,1375.640503 1169.425171,1372.153198 
M768.491333,1358.938965 
	C772.621643,1358.938965 776.752014,1358.938965 780.979126,1358.938965 
	C780.979126,1353.837769 780.979126,1349.112427 780.979126,1344.529663 
	C766.898010,1344.529663 753.169067,1344.529663 739.385010,1344.529663 
	C739.385010,1368.787598 739.385010,1392.682251 739.385010,1416.667236 
	C745.000916,1416.667236 750.370544,1416.667236 756.157837,1416.667236 
	C756.157837,1406.928711 756.157837,1397.528442 756.157837,1387.860596 
	C764.027161,1387.860596 771.473694,1387.860596 779.078857,1387.860596 
	C779.078857,1382.843018 779.078857,1378.115601 779.078857,1373.078369 
	C771.293823,1373.078369 763.852844,1373.078369 756.257202,1373.078369 
	C756.257202,1368.225098 756.257202,1363.693237 756.257202,1358.939087 
	C760.216370,1358.939087 763.859131,1358.939087 768.491333,1358.938965 
M939.454102,1344.167969 
	C925.689880,1344.167969 911.925720,1344.167969 898.239380,1344.167969 
	C898.239380,1349.441895 898.239380,1354.035156 898.239380,1359.038818 
	C903.938416,1359.038818 909.359619,1359.038818 915.206543,1359.038818 
	C915.206543,1378.529785 915.206543,1397.603027 915.206543,1416.610352 
	C921.038574,1416.610352 926.415588,1416.610352 932.052368,1416.610352 
	C932.052368,1397.264160 932.052368,1378.317017 932.052368,1358.783203 
	C937.859009,1358.783203 943.411438,1358.783203 948.715881,1358.783203 
	C948.715881,1353.601685 948.715881,1349.018066 948.715881,1344.167969 
	C945.725403,1344.167969 943.081848,1344.167969 939.454102,1344.167969 
M1124.939941,1362.500732 
	C1124.939941,1356.557373 1124.939941,1350.614014 1124.939941,1344.551392 
	C1119.099365,1344.551392 1113.745361,1344.551392 1108.386108,1344.551392 
	C1108.386108,1368.819092 1108.386108,1392.700684 1108.386108,1416.671143 
	C1114.001099,1416.671143 1119.367920,1416.671143 1124.939941,1416.671143 
	C1124.939941,1398.720825 1124.939941,1381.110718 1124.939941,1362.500732 
M886.342163,1382.500122 
	C886.342163,1369.900024 886.342163,1357.299927 886.342163,1344.460693 
	C880.643311,1344.460693 875.423889,1344.460693 870.120239,1344.460693 
	C870.120239,1368.740112 870.120239,1392.738525 870.120239,1416.702393 
	C875.683044,1416.702393 880.927856,1416.702393 886.342224,1416.702393 
	C886.342224,1405.436401 886.342224,1394.468262 886.342163,1382.500122 
z"/>
<path fill="#FE66C4" opacity="1.000000" stroke="none" 
	d="
M539.430908,1210.114624 
	C538.952087,1042.907715 538.942444,875.761353 538.932861,708.614929 
	C538.932800,707.633362 538.932861,706.651794 538.932861,704.999512 
	C540.945251,704.999512 542.707458,704.999512 544.469666,704.999512 
	C652.623291,704.999512 760.776978,705.023376 868.930481,704.901123 
	C872.757996,704.896790 874.300964,706.031616 875.553467,709.603821 
	C890.625122,752.590393 905.886658,795.510559 921.092102,838.450256 
	C921.468994,839.514648 921.772034,840.605164 922.299377,842.289795 
	C855.841370,842.289795 789.796814,842.289795 723.378540,842.289795 
	C723.378540,875.231018 723.378540,907.638489 723.378540,940.840942 
	C725.118835,940.840942 727.032043,940.841003 728.945251,940.841003 
	C803.269592,940.841003 877.594055,940.873291 951.918213,940.753357 
	C955.983032,940.746765 957.827881,941.815430 959.357300,945.816650 
	C962.150024,953.122742 963.195801,960.425476 963.148560,968.200073 
	C962.948975,1001.028320 963.064026,1033.858398 963.064026,1066.687744 
	C963.064026,1068.478271 963.064026,1070.268677 963.064026,1072.441895 
	C882.969727,1072.441895 803.358521,1072.441895 723.197449,1072.441895 
	C723.197449,1141.213135 723.197449,1209.601440 723.197449,1278.563477 
	C675.700439,1278.563477 628.751709,1278.563477 581.325134,1278.566772 
	C580.823914,1257.638428 580.684937,1236.705933 580.871521,1215.776123 
	C580.910339,1211.429688 579.740967,1210.004639 575.284851,1210.111328 
	C563.496277,1210.394043 551.695862,1210.187134 539.430908,1210.114624 
z"/>
<path fill="#38B6FF" opacity="1.000000" stroke="none" 
	d="
M1077.954468,1103.056641 
	C1039.236328,993.751892 1000.618286,884.826965 962.000427,775.901917 
	C954.165710,753.803345 946.328125,731.705750 938.504883,709.603149 
	C938.014587,708.217773 937.637329,706.792419 937.089539,705.000000 
	C939.088379,705.000000 940.730530,705.000000 942.372742,705.000000 
	C1004.369446,705.000000 1066.366333,705.055481 1128.362549,704.878174 
	C1132.597534,704.865967 1133.916260,706.297119 1135.041992,710.056702 
	C1172.337769,834.625061 1209.748169,959.159119 1247.221924,1083.674072 
	C1247.714233,1085.309692 1249.235596,1086.635620 1250.276611,1088.106079 
	C1251.258057,1086.583008 1252.656860,1085.186401 1253.161743,1083.519165 
	C1290.800537,959.226868 1328.403809,834.923828 1365.805664,710.560242 
	C1367.199951,705.924194 1369.132324,704.883484 1373.646362,704.895508 
	C1432.476196,705.052979 1491.306519,705.000000 1550.136719,705.000000 
	C1551.926392,705.000000 1553.715942,705.000000 1555.986206,705.000000 
	C1549.809937,722.589600 1543.840576,739.674805 1537.814087,756.739807 
	C1482.276611,914.004883 1426.728394,1071.266235 1371.186646,1228.529785 
	C1365.760254,1243.894653 1360.274658,1259.239624 1355.013672,1274.661133 
	C1353.973389,1277.710815 1352.467163,1278.658203 1349.298218,1278.654053 
	C1280.968628,1278.566650 1212.638672,1278.522461 1144.309692,1278.731689 
	C1139.688232,1278.745850 1139.230225,1276.089478 1138.199951,1273.183105 
	C1118.145508,1216.602905 1098.101074,1160.019287 1077.954468,1103.056641 
z"/>
<path fill="#F8F8F8" opacity="1.000000" stroke="none" 
	d="
M632.999756,639.508057 
	C558.888794,639.507996 485.277893,639.507996 411.459991,639.507996 
	C411.459991,633.975647 411.459991,629.039124 411.459991,623.759338 
	C498.178894,623.759338 584.756165,623.759338 671.705078,623.759338 
	C671.705078,628.755981 671.705078,633.814758 671.705078,639.508179 
	C659.045227,639.508179 646.272461,639.508179 632.999756,639.508057 
z"/>
<path fill="#FAFAFA" opacity="1.000000" stroke="none" 
	d="
M1262.763184,1383.000000 
	C1262.763062,1394.462036 1262.763062,1405.424072 1262.763062,1416.697021 
	C1257.187744,1416.697021 1251.937622,1416.697021 1246.266479,1416.697021 
	C1246.266479,1407.467651 1246.266479,1398.060425 1246.266479,1388.293213 
	C1238.329102,1388.293213 1230.796875,1388.293213 1222.788452,1388.293213 
	C1222.788452,1397.705078 1222.788452,1407.104736 1222.788452,1416.751465 
	C1217.073608,1416.751465 1211.824341,1416.751465 1206.284668,1416.751465 
	C1206.284668,1392.712280 1206.284668,1368.679077 1206.284668,1344.406494 
	C1211.697144,1344.406494 1216.933594,1344.406494 1222.543213,1344.406494 
	C1222.543213,1353.899414 1222.543213,1363.168213 1222.543213,1372.794678 
	C1230.444580,1372.794678 1237.983887,1372.794678 1246.019653,1372.794678 
	C1246.019653,1363.384888 1246.019653,1353.986938 1246.019653,1344.424316 
	C1251.750366,1344.424316 1256.987183,1344.424316 1262.763184,1344.424316 
	C1262.763184,1357.282227 1262.763184,1369.891113 1262.763184,1383.000000 
z"/>
<path fill="#FEFEFE" opacity="1.000000" stroke="none" 
	d="
M977.332581,1414.909058 
	C976.500671,1415.934326 975.692749,1416.899048 974.852661,1416.927612 
	C970.381836,1417.081055 965.902954,1416.999878 961.116943,1416.999878 
	C961.116943,1392.705322 961.116943,1368.676147 961.116943,1344.412598 
	C966.414856,1344.412598 971.508423,1344.412598 977.205933,1344.412598 
	C977.205933,1353.886963 977.205933,1363.271851 977.205933,1372.906250 
	C985.241333,1372.906250 992.680298,1372.906250 1000.666992,1372.906250 
	C1000.666992,1363.530762 1000.666992,1354.124878 1000.666992,1344.455811 
	C1006.441956,1344.455811 1011.672363,1344.455811 1017.133667,1344.455811 
	C1017.133667,1368.644775 1017.133667,1392.573242 1017.133667,1416.752441 
	C1011.795654,1416.752441 1006.545227,1416.752441 1000.828613,1416.752441 
	C1000.828613,1407.231567 1000.828613,1397.827148 1000.828613,1388.177368 
	C992.934692,1388.177368 985.498535,1388.177368 977.341736,1388.177368 
	C977.341736,1396.902832 977.341736,1405.659668 977.332581,1414.909058 
z"/>
<path fill="#FBFBFB" opacity="1.000000" stroke="none" 
	d="
M794.053772,1400.020264 
	C801.032104,1382.722168 808.018433,1365.838135 814.664795,1348.821411 
	C816.022156,1345.346191 817.547852,1343.970703 821.400696,1344.068115 
	C831.971313,1344.335693 831.964783,1344.145142 835.977356,1354.106445 
	C843.797363,1373.519531 851.632690,1392.926270 859.457336,1412.337402 
	C860.003357,1413.692017 860.513916,1415.060669 861.174988,1416.769287 
	C855.177612,1416.769287 849.595276,1416.769287 843.450500,1416.769287 
	C842.099487,1413.235107 840.874695,1409.305420 839.064148,1405.666992 
	C838.379456,1404.291016 836.377991,1402.780029 834.915833,1402.715820 
	C827.934387,1402.408813 820.922791,1402.386597 813.943970,1402.721924 
	C812.338867,1402.799072 810.188293,1404.341431 809.389221,1405.808716 
	C807.505859,1409.267212 807.258728,1414.629272 804.536377,1416.346802 
	C801.533142,1418.241333 796.504822,1416.932983 792.358337,1417.004395 
	C790.902771,1417.029419 789.446350,1417.008301 787.288635,1417.008301 
	C789.654114,1411.098755 791.797852,1405.743286 794.053772,1400.020264 
M823.247498,1369.218994 
	C820.979248,1375.316528 818.710999,1381.414185 816.406799,1387.608398 
	C822.106567,1387.608398 826.981812,1387.608398 832.301392,1387.608398 
	C829.763000,1380.974609 827.405823,1374.786377 824.977722,1368.626221 
	C824.914673,1368.466309 824.075623,1368.612549 823.247498,1369.218994 
z"/>
<path fill="#FBFBFB" opacity="1.000000" stroke="none" 
	d="
M1070.033569,1372.969482 
	C1073.793335,1363.164185 1077.449097,1353.731934 1081.076782,1344.372559 
	C1087.303955,1344.372559 1093.232178,1344.372559 1099.745850,1344.372559 
	C1097.708252,1349.317017 1095.849243,1353.898315 1093.936523,1358.457031 
	C1086.356323,1376.522461 1078.681396,1394.549072 1071.242065,1412.672363 
	C1069.944336,1415.833984 1068.533325,1417.567749 1064.843994,1417.081177 
	C1062.068848,1416.715088 1059.206787,1417.008667 1056.207031,1417.008667 
	C1046.095215,1392.893677 1036.032349,1368.895264 1025.667603,1344.176880 
	C1031.698486,1344.176880 1037.109131,1343.964600 1042.478882,1344.339478 
	C1043.687378,1344.423706 1045.248657,1346.361328 1045.807251,1347.777222 
	C1051.228149,1361.521118 1056.469727,1375.335571 1061.763794,1389.129517 
	C1061.972168,1389.672241 1062.193481,1390.210205 1062.778442,1391.678101 
	C1065.380127,1385.007324 1067.654907,1379.175049 1070.033569,1372.969482 
z"/>
<path fill="#FBFBFB" opacity="1.000000" stroke="none" 
	d="
M1169.754639,1372.333008 
	C1175.531860,1375.640503 1181.578613,1378.058105 1186.303345,1382.043335 
	C1196.286011,1390.463379 1194.526855,1406.714233 1183.475952,1413.727417 
	C1171.098999,1421.581909 1148.965454,1419.063477 1138.164307,1408.399536 
	C1140.819214,1403.944824 1143.507202,1399.434692 1146.011719,1395.232422 
	C1150.062500,1397.390259 1153.594482,1399.646851 1157.416626,1401.179932 
	C1160.108643,1402.259644 1163.206055,1402.835938 1166.102173,1402.767822 
	C1169.591919,1402.685791 1173.195312,1401.858398 1174.211670,1397.552734 
	C1175.238037,1393.205444 1172.389893,1391.077515 1169.210938,1389.365234 
	C1165.117310,1387.160278 1160.822754,1385.325684 1156.749023,1383.087280 
	C1146.681885,1377.555176 1142.667358,1369.421631 1145.002075,1359.688232 
	C1147.193237,1350.553101 1156.666016,1343.296997 1166.872437,1343.014771 
	C1175.382446,1342.779541 1183.212891,1344.894897 1190.670166,1349.768799 
	C1188.411255,1354.272583 1186.347290,1358.387451 1184.254028,1362.560669 
	C1180.352539,1361.188843 1176.754883,1359.569092 1172.983765,1358.723633 
	C1170.502563,1358.167480 1167.548340,1358.123779 1165.223755,1358.982422 
	C1163.422729,1359.647339 1161.429443,1361.909180 1161.086426,1363.752441 
	C1160.798096,1365.301636 1162.433838,1367.614868 1163.826050,1368.960449 
	C1165.322876,1370.407104 1167.528687,1371.120117 1169.754639,1372.333008 
z"/>
<path fill="#FAFAFA" opacity="1.000000" stroke="none" 
	d="
M767.996582,1358.938965 
	C763.859131,1358.939087 760.216370,1358.939087 756.257202,1358.939087 
	C756.257202,1363.693237 756.257202,1368.225098 756.257202,1373.078369 
	C763.852844,1373.078369 771.293823,1373.078369 779.078857,1373.078369 
	C779.078857,1378.115601 779.078857,1382.843018 779.078857,1387.860596 
	C771.473694,1387.860596 764.027161,1387.860596 756.157837,1387.860596 
	C756.157837,1397.528442 756.157837,1406.928711 756.157837,1416.667236 
	C750.370544,1416.667236 745.000916,1416.667236 739.385010,1416.667236 
	C739.385010,1392.682251 739.385010,1368.787598 739.385010,1344.529663 
	C753.169067,1344.529663 766.898010,1344.529663 780.979126,1344.529663 
	C780.979126,1349.112427 780.979126,1353.837769 780.979126,1358.938965 
	C776.752014,1358.938965 772.621643,1358.938965 767.996582,1358.938965 
z"/>
<path fill="#FAFAFA" opacity="1.000000" stroke="none" 
	d="
M939.946228,1344.167969 
	C943.081848,1344.167969 945.725403,1344.167969 948.715881,1344.167969 
	C948.715881,1349.018066 948.715881,1353.601685 948.715881,1358.783203 
	C943.411438,1358.783203 937.859009,1358.783203 932.052368,1358.783203 
	C932.052368,1378.317017 932.052368,1397.264160 932.052368,1416.610352 
	C926.415588,1416.610352 921.038574,1416.610352 915.206543,1416.610352 
	C915.206543,1397.603027 915.206543,1378.529785 915.206543,1359.038818 
	C909.359619,1359.038818 903.938416,1359.038818 898.239380,1359.038818 
	C898.239380,1354.035156 898.239380,1349.441895 898.239380,1344.167969 
	C911.925720,1344.167969 925.689880,1344.167969 939.946228,1344.167969 
z"/>
<path fill="#FAFAFA" opacity="1.000000" stroke="none" 
	d="
M1124.939941,1363.000610 
	C1124.939941,1381.110718 1124.939941,1398.720825 1124.939941,1416.671143 
	C1119.367920,1416.671143 1114.001099,1416.671143 1108.386108,1416.671143 
	C1108.386108,1392.700684 1108.386108,1368.819092 1108.386108,1344.551392 
	C1113.745361,1344.551392 1119.099365,1344.551392 1124.939941,1344.551392 
	C1124.939941,1350.614014 1124.939941,1356.557373 1124.939941,1363.000610 
z"/>
<path fill="#FEFEFE" opacity="1.000000" stroke="none" 
	d="
M886.342163,1383.000244 
	C886.342224,1394.468262 886.342224,1405.436401 886.342224,1416.702393 
	C880.927856,1416.702393 875.683044,1416.702393 870.120239,1416.702393 
	C870.120239,1392.738525 870.120239,1368.740112 870.120239,1344.460693 
	C875.423889,1344.460693 880.643311,1344.460693 886.342163,1344.460693 
	C886.342163,1357.299927 886.342163,1369.900024 886.342163,1383.000244 
z"/>
<path fill="#313131" opacity="1.000000" stroke="none" 
	d="
M823.422974,1368.917480 
	C824.075623,1368.612549 824.914673,1368.466309 824.977722,1368.626221 
	C827.405823,1374.786377 829.763000,1380.974609 832.301392,1387.608398 
	C826.981812,1387.608398 822.106567,1387.608398 816.406799,1387.608398 
	C818.710999,1381.414185 820.979248,1375.316528 823.422974,1368.917480 
z"/>
</svg>